<?xml version="1.0" standalone="no"?>
<!DOCTYPE svg PUBLIC "-//W3C//DTD SVG 20010904//EN"
 "http://www.w3.org/TR/2001/REC-SVG-20010904/DTD/svg10.dtd">
<svg version="1.0" xmlns="http://www.w3.org/2000/svg"
 width="500.000000pt" height="500.000000pt" viewBox="0 0 500.000000 500.000000"
 preserveAspectRatio="xMidYMid meet">

<g transform="translate(0.000000,500.000000) scale(0.100000,-0.100000)"
fill="#000000" stroke="none">
<path d="M3042 4389 c-71 -35 -114 -113 -114 -204 0 -95 29 -138 125 -185 42
-20 58 -36 85 -82 31 -54 57 -76 108 -92 16 -5 23 -2 27 14 3 11 1 20 -4 20
-4 0 -20 20 -35 45 -14 25 -37 54 -51 65 l-25 19 39 16 c52 22 82 51 109 110
29 60 30 125 5 180 -45 100 -169 143 -269 94z m142 -33 c44 -18 60 -60 54
-139 -11 -138 -94 -218 -175 -168 -38 24 -58 84 -49 146 9 58 51 137 83 157
34 21 45 22 87 4z"/>
<path d="M2523 4357 c-32 -7 -43 -15 -43 -28 0 -13 7 -19 21 -19 20 0 21 -4
15 -52 -3 -29 -6 -72 -6 -95 0 -32 -4 -43 -15 -43 -8 0 -15 -9 -15 -20 0 -18
7 -20 75 -20 68 0 75 2 75 20 0 13 -7 20 -18 20 -17 0 -19 7 -14 78 3 59 9 82
25 100 20 22 21 22 39 2 31 -33 68 -19 68 25 0 47 -58 61 -104 24 l-26 -20 0
20 c0 23 -11 24 -77 8z"/>
<path d="M2210 4312 c-64 -63 -66 -154 -6 -219 27 -30 41 -36 83 -40 58 -6
115 16 140 54 26 39 3 49 -42 19 -45 -31 -78 -33 -105 -6 -26 26 -37 70 -20
80 8 5 43 11 80 15 89 9 95 13 80 59 -17 54 -52 76 -118 76 -50 0 -58 -3 -92
-38z m124 -24 c20 -28 13 -34 -47 -42 -47 -6 -48 -5 -41 17 15 51 61 64 88 25z"/>
<path d="M1995 4285 c-22 -14 -44 -26 -48 -28 -17 -6 6 -38 23 -32 15 5 22 -6
39 -64 26 -84 26 -94 3 -114 -45 -40 -64 -19 -103 109 -16 54 -30 99 -32 100
-1 2 -26 -9 -55 -24 -54 -27 -67 -58 -25 -56 17 0 24 -10 39 -60 32 -111 57
-146 105 -146 36 0 84 23 98 47 9 15 12 16 20 4 7 -11 17 -11 59 3 41 14 49
20 45 37 -4 13 -11 18 -23 14 -20 -6 -18 -11 -65 148 -14 48 -29 87 -33 87 -4
0 -25 -12 -47 -25z"/>
<path d="M1671 4241 c-8 -5 -17 -26 -20 -47 -5 -32 -11 -39 -36 -44 -62 -13
-115 -72 -115 -127 0 -33 38 -83 69 -89 28 -6 28 -7 14 -35 -13 -27 -13 -32 1
-54 9 -14 24 -25 32 -25 11 0 14 -5 9 -17 -17 -42 -16 -53 9 -77 14 -14 36
-26 49 -26 42 0 146 59 172 98 28 41 30 59 13 96 -20 44 -72 50 -161 16 -29
-11 -60 -20 -69 -20 -30 0 -20 18 20 39 57 29 84 64 89 115 5 43 3 49 -31 80
-41 39 -46 63 -15 62 29 -1 47 27 30 48 -15 18 -39 20 -60 7z m-20 -160 c43
-44 37 -111 -11 -111 -45 0 -86 92 -55 123 23 23 32 21 66 -12z m169 -244 c0
-54 -107 -102 -136 -62 -8 11 -14 25 -14 32 0 18 76 51 118 52 27 1 32 -3 32
-22z"/>
<path d="M3386 4174 c-4 -10 0 -21 10 -28 15 -11 13 -19 -20 -84 -46 -92 -48
-142 -7 -171 18 -13 45 -21 70 -21 30 0 41 -4 41 -15 0 -13 67 -55 89 -55 17
0 22 32 6 44 -13 9 -7 26 41 119 31 60 53 111 51 114 -3 2 -20 8 -39 12 -18 5
-43 11 -54 15 -28 9 -42 -21 -18 -38 15 -11 12 -20 -22 -84 -38 -70 -40 -72
-74 -70 -52 4 -51 36 5 148 25 51 44 94 41 97 -2 3 -19 8 -38 12 -18 5 -43 11
-54 15 -15 5 -24 2 -28 -10z"/>
<path d="M1368 4020 c-9 -6 -22 -26 -28 -45 -10 -31 -13 -33 -31 -22 -16 10
-23 7 -51 -28 -40 -48 -41 -60 -6 -60 23 0 36 -12 73 -68 31 -46 45 -76 43
-94 -4 -39 12 -38 76 8 47 33 55 43 45 55 -6 8 -19 12 -28 9 -20 -6 -101 102
-101 134 0 37 10 48 39 43 39 -5 57 25 35 56 -16 24 -39 27 -66 12z"/>
<path d="M3722 3949 c-88 -44 -119 -162 -61 -226 36 -39 102 -65 144 -57 19 3
35 9 35 13 0 13 -16 26 -32 27 -45 2 -56 5 -76 24 -25 23 -29 72 -9 108 l13
22 72 -51 c40 -28 79 -48 87 -45 8 3 20 24 26 47 11 37 11 45 -7 77 -41 75
-117 99 -192 61z m133 -49 c15 -17 16 -24 7 -45 l-12 -25 -40 26 c-44 30 -48
38 -22 53 26 16 47 13 67 -9z"/>
<path d="M1109 3818 c-6 -13 -21 -33 -32 -46 -20 -21 -20 -23 -4 -39 13 -14
19 -15 29 -5 10 10 24 1 65 -40 56 -55 68 -93 38 -118 -26 -21 -60 -2 -133 74
l-71 75 -36 -51 c-32 -44 -35 -52 -23 -65 13 -12 16 -12 28 2 11 14 22 7 85
-55 58 -55 79 -70 103 -70 38 0 92 51 92 86 0 20 4 24 18 20 12 -4 30 6 55 32
33 34 36 40 22 52 -11 9 -18 10 -29 1 -11 -9 -30 6 -98 79 -46 49 -87 90 -91
90 -3 0 -12 -10 -18 -22z"/>
<path d="M2514 3775 c-36 -48 -23 -59 27 -23 27 19 49 3 49 -37 0 -53 -59
-115 -110 -115 -60 0 -121 77 -106 135 7 29 49 44 71 25 20 -17 32 -5 15 15
-19 23 -73 19 -98 -8 -41 -44 -24 -106 47 -170 62 -56 87 -51 168 27 65 64 66
65 60 108 -11 81 -76 104 -123 43z"/>
<path d="M3965 3750 c-11 -4 -35 -24 -54 -44 -28 -29 -35 -45 -39 -88 -5 -63
21 -109 78 -139 48 -26 100 -25 100 1 0 14 -7 20 -24 20 -14 0 -38 12 -55 26
-37 31 -41 69 -10 109 l22 27 67 -67 67 -67 21 27 c52 65 37 136 -38 188 -26
18 -100 22 -135 7z m126 -50 c20 -11 25 -45 9 -70 -8 -12 -16 -9 -47 23 -32
31 -35 39 -23 47 20 13 37 12 61 0z"/>
<path d="M744 3571 c-17 -10 -57 -56 -89 -101 -53 -75 -56 -83 -41 -98 15 -15
17 -15 28 1 12 16 22 11 113 -54 127 -91 147 -109 142 -131 -3 -9 1 -23 9 -29
17 -14 14 -17 100 107 73 106 82 157 36 204 -23 23 -39 30 -69 30 -22 0 -48
-7 -59 -15 -29 -22 -34 -18 -34 23 0 72 -69 104 -136 63z m65 -77 c34 -28 39
-59 17 -89 -12 -17 -17 -18 -39 -6 -31 17 -77 59 -77 71 0 15 38 50 54 50 8 0
28 -12 45 -26z m167 -87 c16 -14 27 -33 27 -49 0 -26 -29 -78 -44 -78 -13 0
-109 71 -109 80 0 5 12 22 26 39 31 37 63 40 100 8z"/>
<path d="M2615 3568 c-3 -8 1 -31 10 -51 8 -20 15 -56 16 -79 1 -55 13 -97 22
-81 4 6 10 52 14 102 l6 91 50 0 c73 0 176 -20 222 -42 66 -33 122 -94 136
-150 7 -27 19 -48 26 -48 21 0 15 51 -15 110 -22 43 -39 61 -87 92 -93 58
-101 60 -252 66 -118 4 -144 2 -148 -10z"/>
<path d="M2213 3555 c-28 -7 -81 -29 -118 -49 -109 -62 -165 -131 -165 -207 0
-46 24 -31 31 19 7 52 47 103 119 153 42 29 72 40 146 54 109 20 129 17 120
-23 -19 -83 -19 -103 4 -153 13 -27 27 -49 31 -49 4 0 21 -21 38 -46 29 -42
30 -45 9 -38 -12 3 -42 6 -67 5 -59 -1 -111 16 -111 37 0 13 2 12 14 -4 8 -10
17 -17 19 -14 3 3 2 50 -1 105 l-7 100 -37 3 c-57 5 -99 -21 -184 -116 -43
-48 -85 -86 -94 -85 -8 2 -32 6 -52 9 -54 9 -84 -2 -123 -43 -30 -32 -35 -44
-35 -85 0 -37 4 -50 21 -58 35 -19 63 -8 82 33 13 26 25 37 40 37 34 0 143
-55 161 -81 9 -13 32 -49 52 -79 l36 -55 -29 -22 c-67 -55 -80 -72 -86 -113
-10 -75 -51 -110 -154 -130 -27 -5 -80 -24 -118 -42 -59 -29 -72 -40 -97 -85
-18 -31 -32 -74 -35 -107 -4 -41 -10 -55 -24 -59 -21 -6 -59 -63 -59 -90 0
-26 -22 -30 -71 -11 -85 32 -212 54 -315 54 -96 0 -211 -14 -226 -28 -4 -4 91
-7 210 -7 l217 0 85 -34 c47 -18 92 -35 101 -38 9 -2 23 -16 30 -30 7 -14 34
-35 59 -48 57 -29 66 -40 73 -90 10 -61 34 -75 132 -75 123 0 139 -12 87 -61
-40 -39 -59 -46 -142 -53 -41 -4 -120 -14 -175 -23 -72 -11 -136 -14 -232 -10
-108 4 -134 3 -144 -9 -14 -18 -120 -16 -126 2 -8 23 273 73 330 59 39 -10 77
11 77 41 0 26 1 27 54 20 29 -3 73 -15 97 -26 45 -20 78 -24 117 -14 40 11 23
23 -35 26 -49 3 -59 7 -69 26 -16 32 -62 79 -102 104 -52 32 -48 15 9 -41 29
-27 51 -52 49 -54 -3 -3 -33 0 -68 6 -61 10 -65 12 -115 73 -51 62 -136 134
-156 134 -24 0 -8 -21 42 -59 54 -40 107 -95 107 -112 0 -5 -12 -9 -26 -9 -19
0 -36 12 -58 37 -98 117 -178 164 -290 171 -73 4 -143 -7 -138 -23 1 -5 35 -8
76 -6 40 1 93 -3 117 -10 78 -23 220 -133 205 -158 -4 -5 -12 -8 -19 -6 -7 2
-25 6 -40 10 -16 3 -50 27 -77 54 -51 51 -102 71 -177 71 -75 0 -84 -7 -81
-58 l3 -46 90 -18 c50 -9 125 -17 167 -18 83 0 112 -15 52 -26 -40 -7 -198 0
-226 11 -13 5 -18 2 -18 -9 0 -26 42 -29 256 -23 161 5 205 3 213 -7 20 -24
-10 -33 -124 -39 -103 -6 -228 -26 -268 -42 -9 -4 -20 -18 -23 -31 -5 -18 -13
-24 -35 -24 -18 0 -29 -5 -29 -14 0 -9 21 -15 71 -19 39 -3 76 -10 82 -15 7
-4 42 -21 79 -36 60 -25 108 -60 97 -70 -2 -3 -29 -11 -59 -19 -82 -21 -37
-34 48 -14 37 9 108 23 157 32 50 8 97 18 107 21 28 8 32 -16 7 -43 -31 -32
-91 -68 -170 -98 -71 -28 -99 -31 -99 -11 0 8 -15 16 -38 20 -45 7 -87 47 -96
92 -6 29 -12 32 -81 51 -85 22 -98 13 -43 -31 18 -15 38 -31 45 -36 27 -22 44
-6 20 19 -10 11 -9 13 3 9 8 -2 21 -22 28 -44 17 -51 37 -72 84 -86 21 -6 38
-14 38 -17 0 -3 -13 -19 -29 -36 -29 -31 -56 -94 -45 -104 4 -3 9 -1 11 6 21
58 89 116 150 128 42 8 173 67 216 97 15 11 35 36 45 56 15 32 24 39 74 52 71
19 88 35 28 25 -37 -6 -43 -5 -32 6 16 17 88 39 130 39 40 0 64 -38 44 -71
-48 -76 53 -209 160 -209 33 0 58 27 34 36 -13 5 -15 14 -11 33 3 16 -1 39
-10 57 -8 16 -15 37 -15 47 0 10 -11 39 -24 65 -13 26 -26 60 -30 75 -4 17
-16 31 -31 37 -52 20 -22 60 43 60 37 0 51 6 83 35 43 38 65 43 95 20 18 -14
18 -14 -4 -15 -32 0 -79 -22 -132 -61 -52 -38 -39 -51 17 -17 92 57 107 58
223 19 47 -16 112 -34 146 -40 73 -13 500 -15 509 -2 3 6 -29 9 -79 9 -46 0
-89 3 -95 7 -22 13 8 32 72 45 71 14 109 31 155 72 44 38 66 34 70 -15 3 -38
22 -53 22 -17 0 11 5 20 10 20 6 0 10 -9 10 -20 0 -13 -14 -27 -40 -40 -39
-20 -53 -40 -27 -40 7 0 19 6 25 12 10 10 17 10 31 1 17 -10 21 -7 34 30 9 23
17 53 19 66 2 14 9 27 17 29 19 6 7 -69 -15 -104 -14 -20 -14 -24 -2 -24 8 0
19 5 25 11 14 14 61 1 73 -21 14 -27 2 -48 -31 -55 -16 -4 -29 -11 -29 -16 0
-17 50 -9 71 12 31 31 22 69 -23 98 -41 26 -41 41 -1 41 31 0 79 -49 88 -90 4
-17 16 -35 27 -41 18 -10 19 -17 13 -85 -9 -93 8 -100 26 -9 7 35 16 62 21 59
11 -7 10 -51 -2 -74 -7 -14 -7 -25 1 -38 15 -24 127 -93 134 -82 9 15 -13 57
-49 95 -27 27 -36 45 -35 68 0 29 1 30 12 13 32 -51 70 -84 106 -94 46 -11
145 -71 204 -123 l41 -37 -28 -33 c-27 -31 -121 -99 -138 -99 -4 0 -8 -4 -8
-10 0 -5 6 -10 13 -10 7 0 23 -14 36 -30 l22 -30 -32 -28 c-50 -42 -56 -44
-105 -27 -45 15 -48 15 -69 -5 -26 -25 -63 -36 -163 -50 -54 -7 -79 -16 -88
-29 -16 -23 -59 -35 -81 -23 -14 8 -13 12 8 25 13 9 53 23 89 32 113 27 181
48 187 58 6 11 -5 9 -147 -21 -56 -12 -119 -34 -153 -53 -54 -29 -65 -31 -140
-29 -123 4 -144 3 -173 -12 -40 -19 -45 -43 -8 -33 49 13 226 17 237 6 12 -12
-27 -16 -118 -12 -47 2 -49 1 -31 -14 11 -8 26 -15 33 -15 10 0 20 -18 11 -21
-2 0 -39 -6 -83 -12 -77 -12 -80 -13 -83 -40 -3 -23 -6 -26 -18 -17 -7 7 -21
10 -30 6 -14 -5 -13 -9 4 -33 23 -34 18 -53 -13 -53 -36 0 -55 -10 -55 -30 0
-22 12 -31 47 -35 14 -1 29 -9 34 -16 12 -19 2 -24 -17 -8 -14 12 -16 10 -12
-16 2 -23 -2 -32 -22 -42 -37 -19 -56 -16 -77 13 -12 15 -27 25 -37 23 -16 -4
-16 -6 4 -32 31 -39 20 -43 -29 -13 -58 37 -53 76 10 76 29 0 23 22 -17 61
l-35 34 21 17 21 17 -28 14 c-41 21 -87 27 -122 17 -18 -5 -33 -5 -36 1 -4 5
-17 9 -31 9 -13 0 -24 5 -24 11 0 7 24 9 70 7 93 -4 72 13 -26 21 -46 3 -79
11 -81 18 -5 14 50 31 124 40 51 6 53 5 95 -37 43 -42 43 -42 103 -37 146 11
216 106 123 166 -21 13 -38 31 -38 39 0 12 -3 12 -15 2 -19 -16 -19 -57 0 -90
24 -42 18 -58 -31 -80 -38 -18 -51 -19 -79 -10 -67 22 -53 96 27 146 44 28 49
55 13 78 -14 9 -23 21 -20 26 10 17 51 11 78 -10 32 -25 47 -25 47 0 0 46 -94
68 -155 36 -16 -9 -40 -16 -52 -16 -12 0 -27 -9 -33 -20 -16 -30 -30 -24 -30
12 0 30 -1 31 -16 16 -24 -23 -11 -64 22 -72 14 -4 40 -4 57 -1 18 3 47 1 66
-3 l34 -7 -39 -30 c-21 -16 -50 -42 -62 -57 -18 -22 -33 -28 -62 -28 -21 0
-72 -7 -112 -16 -74 -15 -107 -15 -283 7 -199 24 -252 32 -277 45 -32 16 -38
17 -38 5 0 -6 18 -21 41 -34 38 -23 39 -25 17 -31 -43 -11 -134 -6 -154 9 -10
8 -34 15 -53 15 -18 0 -49 9 -68 21 -32 20 -45 21 -84 5 -10 -5 -29 3 -50 20
l-34 28 34 -36 c32 -34 37 -36 80 -31 36 4 50 1 60 -11 8 -9 28 -16 48 -16 32
0 93 -34 93 -52 0 -10 -72 1 -124 19 -64 22 -75 17 -38 -19 30 -30 38 -33 124
-39 68 -6 109 -15 153 -34 56 -26 66 -27 155 -21 52 3 119 14 148 23 51 15 53
15 71 -4 38 -40 75 -47 176 -34 113 15 141 9 181 -38 l32 -36 -29 -33 c-34
-39 -31 -50 31 -105 45 -42 55 -43 128 -22 91 27 152 111 110 153 -8 8 -5 23
13 59 13 26 25 50 27 53 2 3 36 7 75 10 69 5 72 6 82 35 5 17 13 32 17 35 4 3
42 1 83 -4 71 -9 82 -7 153 17 43 15 113 31 156 37 61 8 96 19 151 49 40 21
87 42 104 46 17 3 42 21 57 38 22 26 24 32 10 37 -12 4 -2 18 44 58 33 29 65
62 70 73 11 20 5 21 -63 2 -19 -5 -54 -63 -38 -63 6 0 15 9 21 20 6 11 18 20
28 20 12 0 7 -9 -18 -30 -48 -40 -60 -38 -60 9 0 31 5 41 20 46 26 8 100 93
100 115 0 27 -85 98 -184 155 -104 59 -133 81 -124 90 4 4 33 -9 65 -28 32
-20 81 -41 108 -47 93 -21 130 -34 158 -57 36 -29 67 -30 67 -3 0 20 -66 70
-94 70 -8 0 -29 14 -47 32 -37 34 -28 47 21 29 21 -7 39 -7 60 0 62 22 16 45
-71 37 -63 -6 -77 -18 -60 -54 15 -34 7 -42 -19 -19 -27 24 -32 47 -20 80 10
27 12 28 63 19 28 -4 79 -7 112 -7 53 1 62 4 87 32 27 31 61 40 73 21 12 -19
23 -10 29 24 7 35 0 66 -15 66 -5 0 -9 -13 -9 -30 0 -20 -5 -30 -15 -30 -18 0
-30 23 -39 72 l-7 36 56 7 c37 5 55 12 55 21 0 11 -16 14 -64 14 -44 0 -67 5
-76 15 -10 12 -10 15 1 15 8 0 9 3 3 9 -8 9 -300 17 -354 9 -21 -2 -26 2 -28
24 -3 21 7 36 40 68 36 36 158 109 158 96 0 -3 -11 -17 -25 -32 -30 -33 -24
-46 8 -17 66 59 172 113 223 113 13 0 24 5 24 11 0 7 -10 9 -25 5 -14 -4 -25
-2 -25 3 0 14 64 24 111 18 34 -4 39 -3 39 15 0 19 -5 20 -63 16 -42 -4 -81
-14 -113 -32 -85 -45 -237 -117 -240 -113 -2 2 10 16 26 32 17 16 30 33 30 37
0 12 -83 -1 -148 -23 -45 -15 -54 -16 -58 -4 -9 21 3 33 59 62 117 59 331 113
449 113 26 0 48 5 48 10 0 6 -31 10 -72 10 -104 0 -303 -50 -426 -106 -29 -13
-59 -24 -67 -24 -25 0 -33 32 -28 112 6 77 6 78 -26 107 -18 17 -48 32 -71 36
-24 4 -57 21 -81 41 -23 19 -49 34 -58 34 -21 0 -48 27 -53 55 -3 19 -18 29
-93 62 -32 15 -41 25 -46 53 -9 42 -37 66 -87 75 -25 4 -56 21 -88 49 -31 27
-66 47 -96 54 -103 26 -382 7 -488 -33 -25 -10 -63 -20 -85 -22 -36 -5 -38 -4
-26 11 7 9 19 16 25 16 15 0 96 95 96 113 0 8 -16 25 -36 36 -44 26 -44 56 1
56 25 0 30 -5 36 -33 8 -39 55 -92 81 -92 10 0 30 7 44 16 20 14 24 24 22 53
-3 33 0 36 25 39 30 4 35 23 10 43 -29 25 -45 76 -32 102 31 57 83 62 136 14
l36 -34 -21 -45 c-27 -55 -27 -58 1 -58 35 0 39 -10 17 -40 -37 -52 -23 -70
55 -70 52 0 72 17 81 68 7 37 20 62 34 62 12 0 5 -103 -9 -128 -15 -28 -8 -52
15 -52 26 0 93 81 105 125 5 22 15 52 21 68 12 32 72 87 94 87 20 0 28 -24 14
-49 -10 -20 -9 -21 69 -21 85 0 127 -12 134 -39 6 -24 -3 -41 -20 -41 -9 0
-13 6 -9 15 7 19 -31 45 -67 45 -45 0 -94 -26 -153 -82 -59 -56 -80 -87 -85
-128 -6 -44 14 -34 44 21 40 77 83 117 141 134 65 19 73 19 81 -5 10 -31 70
-28 91 6 16 23 16 28 1 59 -10 20 -30 40 -51 50 -33 16 -39 16 -76 1 -52 -21
-60 -20 -60 3 0 46 -65 68 -102 34 -17 -15 -18 -15 -18 0 0 20 -11 22 -28 5
-17 -17 -15 -2 4 27 9 14 13 33 9 44 -9 29 -72 62 -131 68 l-51 5 -6 -98 c-4
-54 -4 -100 -2 -103 3 -2 12 4 20 15 24 31 17 -2 -10 -54 -14 -26 -25 -59 -25
-74 0 -24 -4 -28 -30 -28 -34 0 -49 22 -30 45 16 19 -3 45 -31 45 -22 0 -23 7
-4 40 22 38 18 59 -17 92 -62 58 -71 61 -117 42 -23 -9 -55 -32 -71 -52 l-29
-35 -7 28 c-4 15 -4 64 -1 108 7 106 1 117 -66 116 -29 -1 -75 -7 -104 -14z
m27 -229 c0 -24 -3 -21 -29 34 l-22 45 26 -30 c13 -16 25 -39 25 -49z m570
-17 c0 -19 4 -21 32 -15 17 3 29 3 25 0 -3 -4 -2 -15 4 -26 13 -24 -6 -121
-27 -143 -21 -20 -38 -20 -26 1 12 22 3 105 -14 125 -16 18 -19 79 -4 79 6 0
10 -10 10 -21z m-607 -35 c20 -7 22 -42 3 -67 -19 -25 -9 -55 25 -73 16 -8 29
-20 29 -28 0 -16 -28 -42 -57 -50 -19 -6 -23 -2 -32 31 -6 21 -18 48 -27 61
-15 21 -15 25 0 41 9 10 16 35 16 60 0 31 4 41 13 37 6 -3 20 -9 30 -12z m-87
-19 c18 -28 13 -55 -11 -55 -23 0 -18 -28 10 -62 14 -16 25 -38 25 -48 0 -11
10 -28 22 -40 12 -11 19 -22 16 -26 -11 -11 -45 15 -87 65 -26 31 -63 60 -96
76 -50 25 -58 26 -105 16 -86 -19 -115 -46 -72 -70 13 -8 14 -12 5 -22 -10
-10 -17 -9 -33 6 -40 37 -16 114 42 134 42 15 64 14 104 -5 40 -19 61 -13 74
20 15 41 81 48 106 11z m287 -77 c2 -13 8 -31 11 -40 5 -11 1 -20 -14 -28 -44
-24 -93 43 -58 78 20 20 55 14 61 -10z m102 -168 c3 -5 1 -10 -4 -10 -6 0 -11
5 -11 10 0 6 2 10 4 10 3 0 8 -4 11 -10z m214 -35 c26 -19 53 -35 59 -35 24 0
43 -50 49 -131 3 -46 12 -96 19 -111 50 -99 -49 -369 -160 -437 -45 -28 -144
-28 -205 -1 -24 11 -54 20 -68 20 -22 0 -24 -2 -13 -15 7 -8 17 -15 22 -15 5
0 35 -12 66 -26 70 -32 151 -36 201 -10 18 10 37 14 42 9 4 -4 11 -39 15 -78
10 -98 37 -154 86 -173 21 -8 38 -18 38 -22 0 -3 -24 -12 -52 -20 -29 -7 -70
-24 -91 -38 -37 -24 -38 -25 -140 -13 -78 9 -111 9 -136 0 -63 -22 -263 15
-221 41 8 5 24 7 35 4 31 -8 51 22 70 101 16 71 23 224 11 244 -4 6 -16 11
-26 11 -27 0 -49 78 -43 150 3 37 0 67 -10 90 l-15 35 -1 -66 c-1 -55 -5 -71
-30 -105 -52 -72 -64 -136 -32 -175 l19 -24 -5 67 c-5 63 -4 68 22 92 36 34
43 26 20 -23 -13 -30 -15 -49 -9 -78 8 -37 8 -38 11 -8 7 54 13 63 29 41 33
-45 -2 -116 -57 -116 -28 0 -39 -15 -39 -54 0 -22 -35 -64 -45 -54 -3 2 2 28
11 57 29 99 13 87 -53 -40 -7 -15 -20 -32 -28 -39 -8 -7 -15 -21 -15 -30 0
-25 -54 -37 -86 -19 -13 7 -24 16 -24 20 0 4 28 23 62 41 62 33 113 88 125
136 3 14 -3 42 -15 70 -12 26 -24 57 -27 70 -7 23 -25 31 -25 10 0 -7 10 -33
21 -58 25 -55 28 -105 7 -126 -14 -14 -16 -9 -22 58 -11 110 -20 105 -26 -16
-3 -76 -9 -111 -18 -114 -9 -3 -11 13 -7 70 4 53 3 67 -4 51 -6 -13 -13 -23
-16 -23 -3 0 -5 38 -5 84 0 81 1 84 25 90 14 4 25 11 25 16 0 17 -30 11 -57
-10 -14 -11 -32 -20 -39 -20 -19 0 -38 -72 -30 -114 10 -51 26 -35 26 25 0 31
4 48 10 44 6 -3 10 -37 10 -75 0 -58 -3 -72 -22 -90 -12 -11 -25 -20 -30 -20
-4 0 -8 -4 -8 -10 0 -20 21 -9 61 31 l40 40 -7 -38 c-10 -58 -20 -70 -71 -87
-55 -19 -95 -20 -111 -4 -16 16 -15 73 2 106 22 43 28 72 17 72 -6 0 -11 -6
-11 -14 0 -18 -36 -63 -44 -55 -10 10 59 165 93 208 33 42 37 51 21 51 -6 0
-33 -34 -60 -76 -42 -64 -50 -72 -50 -50 0 48 76 142 141 176 62 32 89 73 89
135 0 36 5 57 16 66 13 10 17 10 25 -2 14 -22 11 -66 -6 -73 -8 -3 -15 -16
-15 -28 0 -24 -18 -55 -57 -98 -13 -14 -23 -29 -23 -34 0 -18 91 78 97 102 8
35 25 26 18 -10 -12 -60 -16 -68 -44 -82 -15 -8 -33 -22 -40 -30 -11 -14 -11
-16 4 -16 10 0 34 17 55 38 29 29 40 50 50 96 6 32 9 72 5 90 -17 83 -17 97
-1 121 24 37 42 31 52 -17 14 -64 37 -63 28 1 -6 45 -3 56 19 90 14 21 56 58
94 83 37 25 79 58 93 73 14 15 34 31 45 37 11 6 2 -8 -20 -31 -45 -47 -34 -53
27 -15 25 16 71 31 115 39 41 7 77 16 80 19 14 14 46 4 92 -29z m88 8 c45 -30
71 -116 54 -183 -9 -35 -9 -34 -10 15 -2 93 -16 122 -71 150 -54 27 -68 52
-24 41 14 -4 37 -14 51 -23z m-477 -22 c-5 -11 -19 -22 -30 -26 -10 -3 -46
-35 -79 -71 -52 -57 -60 -63 -66 -45 -8 25 9 58 34 66 11 3 35 23 54 45 31 33
45 41 90 49 4 0 3 -8 -3 -18z m-115 -31 c-3 -5 -10 -10 -16 -10 -5 0 -9 5 -9
10 0 6 7 10 16 10 8 0 12 -4 9 -10z m759 -89 c16 -18 17 -21 4 -16 -15 6 -16
2 -6 -32 5 -21 15 -47 21 -58 5 -10 11 -38 12 -62 1 -23 9 -51 18 -61 39 -43
56 -148 21 -135 -11 4 -14 -5 -14 -36 0 -30 -4 -41 -15 -41 -23 0 -65 49 -65
76 0 12 -4 26 -10 29 -14 9 -12 -65 3 -95 7 -14 27 -29 47 -35 50 -14 58 -21
66 -58 6 -27 8 -29 14 -13 8 23 1 64 -11 72 -12 7 -11 34 1 34 5 0 15 -21 23
-47 11 -41 20 -51 55 -68 23 -11 54 -33 70 -48 15 -15 34 -27 41 -27 9 0 11
-8 6 -27 -16 -63 -53 -70 -84 -17 -29 49 -37 36 -15 -25 14 -40 15 -55 6 -76
-12 -25 -36 -33 -47 -15 -10 16 -77 11 -97 -7 -16 -14 -23 -15 -38 -5 -11 7
-29 12 -40 12 -11 0 -20 5 -20 10 0 11 -2 11 62 15 52 3 98 27 98 50 0 8 -9
15 -19 15 -11 0 -23 5 -26 10 -3 6 -1 10 4 10 24 0 9 20 -21 28 -23 6 -34 15
-36 30 -3 20 0 19 55 -13 41 -25 61 -44 70 -68 l12 -32 0 43 c1 42 0 43 -46
63 -54 22 -73 42 -73 76 0 13 -4 22 -10 21 -5 -2 -18 9 -27 23 -10 15 -37 50
-60 79 -43 52 -51 74 -33 85 6 3 11 39 12 78 0 40 3 57 5 40 5 -35 17 -43 27
-17 12 31 6 71 -14 89 -21 19 -25 64 -10 100 7 16 9 11 9 -21 1 -45 31 -94 58
-94 15 0 15 2 0 18 -8 9 -22 46 -31 82 -9 36 -19 76 -22 88 -7 24 -6 24 22 9
16 -8 38 -25 48 -36z m-849 -1 c12 -19 -64 -144 -79 -129 -9 8 23 101 41 121
18 20 29 23 38 8z m975 -108 c29 -14 37 -26 53 -77 10 -33 23 -86 28 -119 10
-60 34 -105 57 -106 16 0 15 6 -2 33 -16 24 -46 129 -46 160 0 28 45 14 92
-28 21 -19 50 -37 65 -40 44 -9 57 -19 78 -57 16 -30 17 -39 6 -52 -15 -18
-53 -21 -82 -6 -15 9 -19 7 -19 -5 0 -23 -24 -13 -29 11 -2 10 -12 31 -22 46
-11 14 -22 40 -25 57 -4 17 -11 31 -16 31 -15 0 -2 -54 26 -116 21 -46 32 -57
85 -84 59 -29 61 -32 61 -69 0 -53 -38 -122 -80 -143 -46 -23 -59 -10 -37 37
23 48 21 68 -5 92 -29 25 -98 65 -98 55 0 -14 16 -30 46 -45 28 -14 64 -56 64
-73 0 -4 -9 1 -19 10 -14 12 -21 14 -26 6 -5 -8 -19 0 -44 23 -20 19 -49 39
-66 44 -17 5 -32 18 -34 29 -3 16 -1 17 13 5 31 -26 26 -4 -10 37 -34 40 -35
45 -29 94 6 49 3 58 -35 122 -22 38 -38 71 -35 74 9 9 75 -61 81 -85 4 -13 12
-23 20 -23 11 0 13 -9 8 -40 -9 -54 -1 -79 39 -121 23 -25 47 -38 73 -43 58
-10 93 -26 98 -45 16 -58 16 -82 0 -112 l-17 -33 24 16 c21 13 24 24 24 71 0
67 -27 102 -89 117 -62 16 -86 28 -86 44 0 8 -11 27 -25 42 -22 24 -25 33 -19
76 6 47 5 51 -27 81 -40 37 -109 121 -109 132 0 10 47 -2 90 -23z m-1104 -78
c-3 -9 -6 -36 -6 -61 0 -43 -4 -49 -60 -103 -59 -54 -120 -98 -120 -85 0 4 25
33 57 66 66 70 57 78 -16 13 -41 -37 -53 -56 -67 -105 -16 -58 -36 -75 -48
-42 -4 9 -2 19 3 22 5 4 13 20 16 36 9 39 86 119 147 153 27 15 48 31 48 36 0
4 -11 1 -25 -8 -13 -9 -33 -16 -43 -16 -22 0 -87 -60 -132 -121 -25 -35 -30
-51 -30 -100 0 -32 -4 -61 -10 -64 -5 -3 -10 -11 -10 -17 0 -6 11 -1 24 11 33
31 40 15 31 -74 -4 -44 -2 -80 4 -91 17 -32 30 -84 22 -84 -13 0 -27 22 -42
65 -8 22 -24 54 -35 72 -12 18 -25 53 -28 78 -9 56 -26 50 -26 -10 0 -50 -11
-62 -33 -37 -14 15 -46 95 -47 115 0 8 51 30 57 24 2 -2 -4 -20 -12 -40 -15
-36 -11 -72 6 -61 5 3 9 15 9 26 0 12 11 40 24 62 13 23 29 66 36 96 7 30 22
65 33 77 11 13 61 43 111 68 87 42 146 85 146 105 0 6 5 10 11 10 6 0 8 -7 5
-16z m-103 -31 c11 -11 -13 -32 -61 -53 -24 -11 -49 -20 -53 -20 -13 0 -79
-44 -79 -52 0 -16 -44 -80 -48 -70 -13 40 92 148 180 183 50 21 52 21 61 12z
m947 -253 c0 -28 -4 -40 -14 -40 -8 0 -19 -12 -24 -27 -10 -26 -10 -26 -11 -5
-1 20 36 112 45 112 2 0 4 -18 4 -40z m120 -71 c0 -6 -7 -9 -15 -5 -12 4 -14
0 -9 -19 4 -15 2 -25 -5 -25 -16 0 -28 30 -34 85 l-5 50 34 -38 c19 -20 34
-42 34 -48z m500 2 c0 -19 -17 -38 -25 -29 -7 7 7 48 16 48 5 0 9 -9 9 -19z
m-542 -68 l37 -33 -33 0 c-66 0 -91 38 -60 93 l13 22 3 -25 c2 -14 20 -40 40
-57z m701 18 c-21 -28 -103 -101 -114 -101 -3 0 -49 -20 -102 -45 -53 -25 -98
-43 -100 -41 -13 12 83 101 161 150 42 26 137 65 159 66 16 0 16 -2 -4 -29z
m-789 -36 c0 -8 11 -27 26 -44 23 -28 31 -30 97 -33 71 -3 72 -3 47 -20 -14
-9 -49 -18 -79 -20 -50 -3 -54 -1 -70 27 -9 17 -24 41 -34 55 -9 13 -17 35
-17 48 0 21 2 22 15 12 8 -7 15 -18 15 -25z m-527 -72 c-9 -68 -36 -127 -71
-151 -44 -32 -46 -15 -5 35 47 58 35 67 -22 14 -27 -25 -54 -41 -69 -41 -45 0
-36 17 17 34 51 17 117 72 117 99 0 13 27 57 35 57 3 0 2 -21 -2 -47z m513
-16 c12 -35 63 -75 107 -84 15 -3 27 -10 27 -15 0 -7 -12 -7 -32 -2 -18 4 -49
7 -69 7 -29 -1 -39 4 -47 22 -16 34 -25 92 -17 105 9 15 18 6 31 -33z m-576
-7 c0 -12 -42 -51 -48 -45 -7 7 27 55 38 55 6 0 10 -4 10 -10z m1270 -9 c-5
-11 -10 -31 -10 -44 0 -22 -6 -26 -41 -32 -31 -5 -43 -3 -52 10 -11 15 -14 14
-34 -8 -11 -14 -37 -30 -57 -37 -39 -12 -52 -37 -13 -26 115 34 518 68 569 48
29 -12 52 -48 61 -99 6 -29 3 -34 -17 -39 -44 -11 -61 -1 -66 36 -4 28 -13 39
-40 53 -39 20 -119 19 -145 -3 -14 -12 -14 -15 1 -31 10 -11 27 -19 38 -19 12
-1 32 -8 46 -16 23 -14 13 -15 -120 -10 -80 3 -184 6 -233 6 -82 0 -88 1 -98
24 -6 13 -22 29 -36 35 -13 6 -23 17 -21 23 8 22 234 145 271 147 4 1 3 -8 -3
-18z m-220 -4 c0 -12 -82 -67 -100 -67 -14 0 -12 46 3 58 26 21 97 28 97 9z
m-2110 -71 c0 -3 -4 -8 -10 -11 -5 -3 -10 -1 -10 4 0 6 5 11 10 11 6 0 10 -2
10 -4z m1106 -41 c-15 -23 -36 -34 -36 -18 0 10 43 54 48 48 3 -2 -3 -16 -12
-30z m791 13 c-3 -8 -6 -5 -6 6 -1 11 2 17 5 13 3 -3 4 -12 1 -19z m754 -144
c76 -7 102 -18 79 -35 -9 -6 -54 -8 -122 -5 -121 5 -134 -1 -145 -68 -7 -47
-19 -53 -51 -29 -39 28 -89 46 -108 39 -19 -7 -137 90 -128 106 6 10 326 5
475 -8z m-1251 -14 c18 -6 5 -8 -45 -9 -49 0 -65 2 -55 9 18 11 65 11 100 0z
m-720 -20 c0 -24 -19 -35 -92 -49 -35 -8 -79 -27 -115 -51 -51 -35 -69 -40
-148 -50 -137 -15 -147 -14 -196 25 -24 19 -47 35 -51 35 -4 0 -19 5 -34 10
-45 17 -22 20 41 5 62 -15 125 -19 125 -9 0 3 -5 14 -10 24 -9 16 -6 21 14 26
40 10 71 1 68 -19 -3 -15 3 -17 40 -11 24 4 50 15 58 25 12 14 45 22 145 35
72 9 132 18 134 20 11 10 21 2 21 -16z m82 -47 c6 -16 17 -42 24 -60 15 -32
18 -53 9 -53 -31 0 -114 107 -100 130 3 5 17 10 31 10 17 0 28 -8 36 -27z m9
-130 c16 -10 29 -22 29 -29 0 -6 9 -23 20 -37 21 -26 18 -57 -6 -57 -17 0 -18
12 -3 27 7 7 3 12 -15 17 -14 3 -26 11 -26 16 0 6 -7 10 -15 10 -18 0 -19 -14
-5 -41 18 -32 -4 -21 -25 14 -50 82 -26 123 46 80z m1579 -463 c0 -32 -106
-65 -228 -73 -57 -3 -61 -2 -39 10 14 7 58 18 98 24 41 7 90 20 109 30 40 21
60 24 60 9z m-798 -85 c0 -8 1 -19 2 -25 2 -21 -19 -8 -26 15 -4 18 -2 25 8
25 8 0 15 -7 16 -15z m408 -25 c11 -7 6 -10 -20 -10 -26 0 -31 3 -20 10 8 5
17 10 20 10 3 0 12 -5 20 -10z m-1181 -17 c3 -2 0 -8 -6 -14 -13 -13 -78 -2
-94 17 -9 11 -2 12 43 7 29 -3 55 -7 57 -10z m-89 -28 c16 -9 55 -14 105 -15
95 0 117 -10 81 -33 -15 -10 -27 -13 -31 -7 -8 13 -84 13 -123 -1 -28 -10 -40
-7 -99 22 l-68 32 35 7 c55 11 73 10 100 -5z m278 6 c7 -4 -13 -6 -45 -4 -79
6 -89 11 -23 12 30 0 61 -3 68 -8z m106 -36 c44 -18 43 -39 -2 -43 -64 -6
-104 49 -41 57 4 1 23 -6 43 -14z"/>
<path d="M2676 2895 c-40 -14 -64 -37 -45 -44 6 -2 27 4 47 13 21 9 55 18 77
19 22 1 40 7 40 12 0 16 -76 16 -119 0z"/>
<path d="M2321 2884 c-47 -20 -76 -57 -96 -123 -13 -43 -14 -62 -6 -84 10 -24
7 -31 -25 -67 -20 -22 -40 -40 -45 -40 -4 0 -11 20 -15 45 -3 25 -11 45 -16
45 -12 0 -3 -89 13 -124 9 -19 5 -35 -19 -86 l-29 -64 18 -40 c10 -23 19 -53
19 -68 0 -42 17 -33 25 12 4 23 17 53 30 68 47 56 69 122 45 137 -5 3 -10 -2
-10 -12 -1 -33 -38 -101 -59 -108 -35 -11 -42 3 -24 48 20 53 20 52 36 39 20
-17 28 -4 21 38 -6 36 -5 38 52 76 50 33 60 44 62 72 2 20 -5 47 -17 68 -12
19 -21 44 -21 55 0 33 29 79 56 89 39 15 121 12 155 -6 17 -8 33 -13 36 -11 7
8 -40 36 -78 47 -45 13 -68 12 -108 -6z m-51 -225 c0 -19 -39 -71 -40 -52 0 6
5 15 11 19 7 4 9 22 5 48 -6 38 -5 40 9 22 8 -11 15 -27 15 -37z"/>
<path d="M2338 2829 c-37 -19 -53 -37 -23 -25 17 6 21 -9 5 -19 -15 -10 -12
-25 6 -25 9 0 28 -7 44 -16 26 -16 28 -16 49 5 11 11 26 21 31 21 25 0 7 28
-22 34 -30 6 -31 8 -15 20 9 7 17 16 17 20 0 13 -57 4 -92 -15z"/>
<path d="M2674 2839 c-3 -6 -1 -15 6 -19 10 -6 10 -8 -1 -12 -19 -6 -3 -38 20
-38 10 0 22 -8 26 -17 6 -17 7 -17 19 0 7 9 21 17 30 17 25 0 30 25 11 54 -14
21 -25 26 -61 26 -23 0 -46 -5 -50 -11z"/>
<path d="M2605 2777 c-10 -23 1 -140 15 -167 17 -32 33 -24 24 13 -4 17 -13
64 -19 102 -8 50 -14 65 -20 52z"/>
<path d="M2540 2600 c0 -5 12 -10 26 -10 14 0 23 4 19 10 -3 6 -15 10 -26 10
-10 0 -19 -4 -19 -10z"/>
<path d="M2565 2498 c-34 -12 -55 -27 -55 -38 0 -10 49 -19 55 -10 3 4 13 10
24 13 14 3 18 1 14 -9 -4 -10 3 -14 21 -14 14 0 26 5 26 10 0 6 7 10 15 10 22
0 19 27 -4 40 -24 12 -56 12 -96 -2z"/>
<path d="M1896 2347 c-23 -30 -26 -43 -26 -120 0 -47 5 -89 10 -92 6 -4 10 24
10 77 0 64 5 93 20 123 25 50 19 56 -14 12z"/>
<path d="M1852 2065 c0 -16 2 -22 5 -12 2 9 2 23 0 30 -3 6 -5 -1 -5 -18z"/>
<path d="M2947 2643 c-15 -14 -6 -75 14 -103 17 -22 20 -37 16 -62 l-7 -33 31
34 c26 28 30 39 26 68 -4 19 -18 50 -32 69 -26 34 -36 40 -48 27z m33 -45 c23
-25 30 -69 7 -46 -8 7 -19 23 -25 35 -21 39 -13 44 18 11z"/>
<path d="M3120 2265 c0 -8 4 -15 10 -15 5 0 25 -16 44 -35 19 -19 38 -30 41
-25 11 17 -15 49 -55 70 -34 17 -40 18 -40 5z"/>
<path d="M3300 2554 c0 -3 14 -22 30 -41 17 -18 30 -40 30 -48 0 -8 5 -15 10
-15 17 0 11 36 -11 64 -21 26 -59 52 -59 40z"/>
<path d="M4227 3554 c-4 -4 -4 -16 -2 -28 8 -30 -122 -120 -159 -110 -40 10
-39 -13 4 -75 37 -53 44 -58 61 -48 14 8 15 14 7 25 -13 15 -14 14 74 76 57
40 70 45 87 36 23 -12 37 -52 26 -70 -4 -7 -34 -32 -67 -56 -45 -33 -66 -42
-83 -38 -46 11 -46 -6 -4 -67 23 -32 48 -59 55 -59 19 0 27 19 15 34 -8 9 7
25 64 64 80 55 109 96 99 137 -6 25 -66 85 -86 85 -7 0 -7 4 0 13 8 10 1 22
-28 50 -40 37 -51 43 -63 31z"/>
<path d="M2526 3531 c-8 -12 31 -101 44 -101 15 0 12 37 -6 76 -16 34 -28 42
-38 25z"/>
<path d="M2446 3503 c-14 -51 -17 -83 -7 -83 15 0 31 35 31 69 0 33 -16 42
-24 14z"/>
<path d="M3582 3344 c-14 -28 -133 -213 -172 -264 -111 -147 -144 -200 -80
-130 22 25 83 108 134 185 131 196 147 223 137 229 -4 3 -13 -6 -19 -20z"/>
<path d="M2542 3322 c3 -23 0 -36 -9 -39 -20 -8 -16 -23 6 -23 33 0 43 58 15
81 -15 13 -17 11 -12 -19z"/>
<path d="M2956 3217 c-11 -8 -17 -19 -15 -25 5 -13 69 12 69 28 0 14 -33 13
-54 -3z"/>
<path d="M2500 3135 c0 -16 17 -19 44 -9 22 9 10 24 -20 24 -15 0 -24 -6 -24
-15z"/>
<path d="M1400 3105 c0 -4 37 -46 83 -93 72 -75 185 -162 209 -162 19 0 5 20
-29 41 -21 13 -66 49 -100 80 -93 85 -163 142 -163 134z"/>
<path d="M3795 3051 c-16 -10 -61 -44 -100 -75 -38 -31 -107 -85 -151 -119
-70 -53 -115 -97 -100 -97 2 0 22 15 45 33 22 17 110 83 195 146 140 102 173
131 149 131 -5 0 -21 -9 -38 -19z"/>
<path d="M2305 3050 c-3 -5 1 -10 9 -10 9 0 16 5 16 10 0 6 -4 10 -9 10 -6 0
-13 -4 -16 -10z"/>
<path d="M3142 3003 c-24 -34 -47 -87 -34 -79 18 11 64 86 60 97 -2 7 -13 0
-26 -18z"/>
<path d="M3246 2991 c-16 -23 -27 -44 -24 -46 8 -8 60 64 56 76 -2 6 -17 -7
-32 -30z"/>
<path d="M1740 2969 c0 -16 68 -79 86 -79 25 0 15 15 -36 53 -27 21 -50 32
-50 26z"/>
<path d="M3434 2912 c-24 -16 -88 -95 -69 -84 26 14 102 92 90 92 -6 0 -15 -4
-21 -8z"/>
<path d="M1060 2881 c0 -11 242 -151 260 -151 24 0 -5 21 -88 66 -48 26 -104
57 -124 70 -41 26 -48 28 -48 15z"/>
<path d="M1440 2846 c6 -8 32 -25 56 -38 25 -13 60 -30 77 -40 33 -17 43 -17
33 0 -6 10 -159 92 -172 92 -3 0 -1 -7 6 -14z"/>
<path d="M3561 2739 c-51 -36 -49 -50 2 -17 19 13 43 28 53 35 16 10 16 12 3
12 -9 1 -35 -13 -58 -30z"/>
<path d="M3895 2740 c-38 -15 -112 -44 -164 -63 -93 -36 -131 -57 -100 -57 8
0 73 24 144 53 72 29 149 59 173 66 23 8 42 18 42 23 0 13 -19 8 -95 -22z"/>
<path d="M1424 2677 c10 -7 34 -22 53 -34 38 -26 57 -29 51 -10 -5 14 -86 56
-108 56 -11 0 -10 -3 4 -12z"/>
<path d="M1290 2592 c0 -10 58 -38 65 -31 2 3 1 10 -3 16 -10 15 -62 28 -62
15z"/>
<path d="M1410 2545 c14 -16 40 -20 40 -6 0 9 -24 21 -42 21 -6 0 -6 -6 2 -15z"/>
<path d="M3585 2530 c-8 -13 45 -13 65 0 11 7 6 10 -22 10 -20 0 -40 -4 -43
-10z"/>
<path d="M1380 2450 c0 -5 9 -10 20 -10 11 0 20 5 20 10 0 6 -9 10 -20 10 -11
0 -20 -4 -20 -10z"/>
<path d="M3898 2272 c-48 -26 -88 -52 -88 -59 0 -7 6 -10 14 -7 8 3 65 -4 127
-16 67 -13 115 -18 121 -12 5 5 8 38 6 73 l-3 64 -45 2 c-37 2 -61 -7 -132
-45z"/>
<path d="M3743 2184 c-7 -3 -13 -11 -13 -18 0 -14 47 -21 233 -32 65 -4 107
-3 107 2 0 6 -60 18 -132 28 -73 10 -144 19 -158 21 -14 2 -31 2 -37 -1z"/>
<path d="M945 1970 c3 -5 10 -10 16 -10 5 0 9 5 9 10 0 6 -7 10 -16 10 -8 0
-12 -4 -9 -10z"/>
<path d="M3092 1818 c-17 -17 -15 -65 3 -72 23 -8 18 -25 -10 -32 -26 -6 -52
-31 -42 -40 8 -8 85 36 91 53 3 7 -4 23 -16 35 -17 17 -19 24 -9 39 18 30 7
41 -17 17z"/>
<path d="M4010 1801 c0 -7 -23 -37 -52 -67 -28 -30 -49 -56 -46 -59 2 -2 20 6
40 20 33 22 77 100 63 113 -3 3 -5 0 -5 -7z"/>
<path d="M2259 1743 c-23 -28 -41 -91 -34 -122 3 -16 17 -38 30 -51 23 -22 23
-22 34 -2 15 29 14 154 -2 176 -12 16 -13 16 -28 -1z"/>
<path d="M3279 1734 c-23 -22 -30 -24 -49 -14 -28 15 -37 6 -21 -24 17 -30 2
-60 -39 -81 -43 -22 -37 -38 7 -20 20 9 38 17 38 18 1 1 22 28 48 60 26 33 47
65 47 73 0 19 -1 18 -31 -12z"/>
<path d="M2521 1615 c3 -70 7 -87 24 -99 39 -30 50 -16 47 54 -4 95 -18 130
-49 130 l-25 0 3 -85z m59 -79 c0 -6 -7 -2 -15 8 -8 11 -15 25 -15 30 0 6 7 2
15 -8 8 -11 15 -25 15 -30z"/>
<path d="M2800 1656 c0 -54 38 -106 76 -106 13 0 24 4 24 9 0 34 -69 141 -91
141 -5 0 -9 -20 -9 -44z"/>
<path d="M3039 1611 c-30 -30 -36 -46 -20 -55 16 -10 41 5 41 24 0 10 6 23 14
29 18 15 26 -5 26 -65 0 -39 -3 -45 -31 -60 -18 -9 -45 -14 -63 -11 -34 5 -56
-4 -99 -39 -16 -13 -38 -24 -49 -24 -25 0 -98 -76 -98 -101 0 -10 -7 -25 -16
-33 -22 -23 -14 -36 31 -52 54 -19 101 -17 136 3 32 19 54 71 44 103 -5 17 -2
20 22 20 34 0 73 32 73 59 0 10 16 32 35 48 33 28 35 34 35 91 0 33 -3 67 -6
76 -10 25 -43 19 -75 -13z m-32 -187 c8 -22 -6 -32 -51 -36 -25 -2 -41 2 -43
10 -3 6 2 12 10 12 8 0 20 7 27 15 16 20 49 19 57 -1z m-100 -80 c33 -36 24
-69 -23 -89 -48 -20 -67 -19 -82 5 -10 17 -9 22 14 36 19 13 28 14 37 5 18
-18 27 -13 27 13 0 34 -14 40 -51 21 -40 -21 -48 -13 -13 14 36 28 62 27 91
-5z"/>
<path d="M3390 1595 c0 -5 75 -45 85 -45 17 0 0 19 -30 33 -36 17 -55 21 -55
12z"/>
<path d="M1307 1574 c-18 -18 -3 -25 48 -22 30 2 56 8 58 13 2 11 -95 20 -106
9z"/>
<path d="M3910 1560 c0 -5 5 -10 10 -10 6 0 10 5 10 10 0 6 -4 10 -10 10 -5 0
-10 -4 -10 -10z"/>
<path d="M1570 1449 c-85 -57 -158 -125 -125 -116 11 2 28 8 38 12 13 6 16 3
11 -9 -9 -23 1 -20 75 20 81 44 101 62 94 80 -3 8 2 23 11 33 9 10 13 21 9 24
-14 15 -41 4 -113 -44z"/>
<path d="M2106 1465 c5 -19 0 -30 -22 -48 l-28 -24 27 -32 c67 -80 93 -91 174
-76 l42 7 3 -38 c3 -35 8 -42 53 -66 57 -30 130 -36 161 -13 18 13 16 14 -22
15 -50 0 -168 57 -159 77 3 7 8 20 11 28 4 11 0 15 -16 15 -11 0 -18 5 -15 10
3 6 17 10 31 10 39 0 28 18 -18 31 -24 6 -49 16 -56 21 -23 20 -26 -2 -3 -32
19 -27 20 -31 6 -37 -28 -10 -92 16 -119 47 -30 36 -25 64 10 56 34 -9 30 7
-11 43 -43 37 -57 39 -49 6z"/>
<path d="M3510 1481 c0 -14 61 -62 71 -55 5 3 5 13 -1 24 -16 30 -70 54 -70
31z"/>
<path d="M1894 1406 c-48 -21 -81 -54 -115 -114 -17 -30 -29 -56 -27 -57 17
-18 178 116 178 148 0 9 5 17 10 17 6 0 10 5 10 10 0 13 -19 12 -56 -4z"/>
<path d="M3332 1389 c5 -16 104 -99 118 -99 18 0 10 17 -27 58 -38 42 -100 70
-91 41z"/>
<path d="M3100 1341 c0 -21 11 -39 40 -65 23 -20 45 -34 50 -31 14 8 -19 93
-43 110 -33 23 -47 18 -47 -14z"/>
<path d="M2040 1249 c0 -62 48 -124 80 -104 13 8 13 41 -2 82 -9 24 -18 33
-35 33 -13 0 -23 5 -23 10 0 6 -4 10 -10 10 -5 0 -10 -14 -10 -31z"/>
<path d="M1300 1219 c22 -19 70 -41 129 -59 98 -31 210 -55 218 -47 2 3 -62
26 -144 52 -81 26 -165 56 -185 66 -53 27 -59 23 -18 -12z"/>
<path d="M3223 499 c-13 -5 -23 -13 -23 -19 0 -5 0 -12 0 -15 0 -3 3 -5 8 -5
4 0 7 5 7 12 0 6 6 13 12 15 22 8 27 -27 9 -63 -24 -52 -22 -66 12 -53 15 5
33 12 40 14 7 3 11 9 7 15 -4 6 -13 5 -25 -2 -27 -17 -36 -3 -16 26 19 30 21
72 4 79 -7 2 -23 1 -35 -4z"/>
<path d="M1857 493 c-14 -13 -6 -50 13 -68 11 -10 20 -24 20 -32 0 -23 -30
-14 -42 12 -8 19 -14 22 -20 13 -10 -16 -10 -39 0 -36 4 0 15 -2 24 -6 26 -12
62 -3 66 17 2 9 -8 31 -23 49 -15 18 -22 35 -17 40 12 12 42 -1 42 -18 0 -8 5
-14 10 -14 16 0 11 37 -6 44 -21 8 -59 8 -67 -1z"/>
<path d="M2014 432 c-1 -16 -8 -43 -16 -60 -9 -17 -13 -33 -10 -36 9 -10 44
-7 38 3 -6 9 8 63 24 92 10 19 4 29 -19 29 -11 0 -16 -10 -17 -28z"/>
<path d="M3060 441 c-7 -13 -7 -22 0 -26 10 -6 11 -5 14 17 0 6 6 13 13 15 23
8 25 -21 3 -68 -13 -27 -21 -51 -19 -54 11 -10 79 17 79 32 0 12 -3 13 -15 3
-8 -6 -21 -10 -30 -8 -15 3 -14 6 4 30 12 14 21 38 21 52 0 22 -4 26 -30 26
-19 0 -33 -7 -40 -19z"/>
<path d="M2132 403 c-1 -19 -8 -48 -16 -63 -12 -25 -12 -29 1 -34 8 -3 16 -6
17 -6 2 0 3 16 4 36 2 53 8 52 34 0 12 -25 27 -45 33 -43 5 2 15 24 20 50 6
25 13 49 18 53 13 13 8 24 -12 24 -13 0 -18 -5 -15 -18 3 -9 1 -28 -4 -42 -9
-24 -10 -24 -33 22 -29 60 -45 67 -47 21z"/>
<path d="M2916 414 c-9 -9 -16 -32 -16 -54 0 -30 5 -43 24 -55 29 -20 51 -11
66 25 27 65 -29 129 -74 84z m54 -67 c0 -31 -3 -38 -17 -35 -25 5 -41 71 -23
93 13 16 15 15 27 -1 7 -10 13 -35 13 -57z"/>
<path d="M2762 398 c-15 -15 -16 -38 -2 -38 6 0 10 7 10 15 0 8 7 15 15 15 23
0 18 -30 -11 -72 -15 -21 -24 -41 -21 -44 12 -12 77 7 77 22 0 12 -3 12 -20 2
-31 -20 -35 -1 -6 32 14 17 26 37 26 44 0 17 -21 36 -40 36 -9 0 -21 -5 -28
-12z"/>
<path d="M2321 374 c-12 -15 -21 -34 -21 -43 0 -28 30 -61 55 -61 30 0 55 10
55 21 0 5 -9 4 -20 -3 -43 -27 -77 30 -46 78 18 27 44 32 52 9 8 -21 24 -19
24 3 0 14 -9 19 -39 20 -32 2 -43 -2 -60 -24z"/>
<path d="M2498 351 c3 -30 0 -56 -7 -64 -16 -20 -4 -27 46 -27 38 0 43 3 43
22 0 17 -3 19 -12 10 -19 -19 -48 -15 -48 6 0 26 11 34 27 21 10 -9 13 -7 13
9 0 15 -5 20 -15 16 -10 -4 -15 0 -15 15 0 23 19 28 38 9 9 -9 12 -8 12 5 0 9
-6 17 -14 17 -7 0 -27 3 -43 6 l-30 6 5 -51z"/>
</g>
</svg>
